<svg width="323" height="190" viewBox="0 0 323 190" fill="none" xmlns="http://www.w3.org/2000/svg">
<path d="M147.174 0.496731C144.826 1.04575 141.487 2.06536 140.861 2.37908C140.47 2.58823 140.47 2.66667 140.861 3.45098C141.2 4.10457 141.304 4.99346 141.304 7.18954C141.304 9.93464 141.252 10.1438 140.417 11.8431C139.217 14.2222 136.922 16.366 134.417 17.3595C132.774 18.0392 132.409 18.0915 130.035 17.9869C126.93 17.8301 125.209 17.1242 122.861 14.9542L121.348 13.5425L119.965 14.7974C118.661 16.0261 117.252 17.4641 115.374 19.4248L114.487 20.366L115.687 21.4379C117.148 22.7451 118.609 25.5425 119.052 27.8954C119.6 30.9281 118.504 34.4314 116.235 36.8889C113.261 40.0523 109.061 41.2288 105.148 40C104.235 39.7386 103.478 39.5294 103.478 39.5556C103.243 39.9477 101.939 44.5229 101.626 46.0131C101.391 47.085 101.157 48.2353 101.078 48.5229C100.974 49.0196 101.104 49.098 102.148 49.2549C105.122 49.6993 108.513 52.3922 109.974 55.4248C110.73 57.0196 110.783 57.3333 110.783 60C110.783 62.5882 110.704 63.0327 110.052 64.4183C108.565 67.6078 106.296 69.5686 102.904 70.5882C101.861 70.902 101 71.2418 101 71.3464C101 72.0523 103.191 80.0784 103.504 80.4967C103.557 80.549 104.13 80.366 104.835 80.1046C106.843 79.3203 110.052 79.451 112.322 80.3922C116.261 82.0131 119.261 86.4314 119.261 90.5882C119.261 93.1765 117.957 96.2092 115.948 98.2745L114.565 99.7124L115.27 100.497C116.548 101.961 121.165 106.405 121.4 106.405C121.504 106.405 122 105.961 122.496 105.438C122.991 104.889 124.035 104.052 124.817 103.582C130.322 100.261 137.235 102.248 140.261 108.026C141.148 109.699 141.252 110.17 141.383 112.261C141.461 114.144 141.383 114.954 140.991 116.105L140.496 117.569L142.087 118.118C144.357 118.902 148.583 120 149.365 120C149.887 120 150.07 119.843 150.2 119.294C151.087 115.19 153.409 112.34 157.087 110.824C159.096 109.987 162.852 109.987 164.913 110.824C168.539 112.314 170.913 115.242 171.8 119.268C171.93 119.817 172.113 120 172.609 120C173.365 120 176.417 119.216 179.391 118.248L181.504 117.569L181.009 116.105C180.617 114.98 180.539 114.118 180.617 112.366C180.722 110.405 180.852 109.856 181.687 108.157C184.583 102.301 191.6 100.209 197.183 103.582C197.965 104.052 199.009 104.889 199.478 105.438C199.922 105.961 200.417 106.405 200.574 106.405C200.835 106.405 205.374 102.065 206.73 100.497L207.435 99.7124L206.052 98.2745C201.643 93.7255 201.748 87.1895 206.261 82.719C208.478 80.549 210.617 79.6601 213.696 79.634C215.261 79.6078 216.278 79.7386 217.165 80.1046C217.87 80.366 218.443 80.549 218.496 80.4967C218.783 80.0784 221 71.9477 221 71.2418C221 71.1895 220.139 70.902 219.122 70.5882C215.783 69.5948 213.617 67.7647 211.974 64.5752C211.27 63.2418 211.217 62.9281 211.217 60.1307C211.217 57.3072 211.27 57.0196 212.026 55.3987C213.461 52.366 216.852 49.7255 219.852 49.2549C220.478 49.1765 221 49.0196 221 48.915C221 48.3399 218.783 39.8693 218.548 39.5556C218.522 39.5294 217.739 39.7386 216.826 40.0261C213.278 41.1503 209.183 40.1307 206.313 37.4118C203.052 34.3268 202.035 30.0915 203.47 25.8824C204.096 24.0784 205.374 22.1699 206.548 21.2549C207.043 20.8889 207.409 20.4967 207.383 20.366C207.278 20.0784 203.704 16.366 202.035 14.7974L200.652 13.5425L199.139 14.9542C196.791 17.1242 195.07 17.8301 191.965 17.9869C189.591 18.0915 189.226 18.0392 187.583 17.3595C185.052 16.366 182.704 14.1699 181.583 11.817C180.513 9.62091 180.252 6.43137 180.93 4.10457C181.165 3.32026 181.348 2.58823 181.348 2.5098C181.348 2.24836 173.339 -1.39698e-06 172.296 -1.39698e-06C172.139 -1.39698e-06 171.878 0.62745 171.696 1.35948C171.304 3.08497 169.922 5.62091 168.774 6.71895C164.47 10.8497 157.609 10.902 153.357 6.82353C152.104 5.64706 150.722 3.1634 150.304 1.35948C149.939 -0.183008 150.043 -0.156864 147.174 0.496731ZM167.261 20.915C171.278 21.5686 174.148 22.4575 177.67 24.1046C185.026 27.5294 191.574 33.6471 195.643 40.915C196.374 42.1961 197.052 43.5817 197.13 44C197.235 44.3922 197.417 44.7582 197.522 44.8366C197.861 45.0458 199.27 49.7516 199.922 52.8105C200.757 56.7843 200.757 63.268 199.896 67.3203C198.148 75.7386 194.626 82.3268 188.783 88.2091C183.617 93.3856 177.122 96.9412 169.609 98.719C166.217 99.5294 159.539 99.8431 155.965 99.3725C140.809 97.3333 128.183 86.902 123.435 72.4183C121.922 67.7908 121.504 65.1242 121.504 60C121.53 55.9216 121.609 54.902 122.183 52.2876C123.409 46.8758 124.843 43.268 127.4 39.1373C130.322 34.3791 134.965 29.6993 139.843 26.5359C147.696 21.4641 157.817 19.3725 167.261 20.915Z" fill="black"/>
<path d="M164.913 51.2941C163.035 52.2875 162.565 53.464 162.565 57.4379V60.6536H161.652C160.922 60.6536 160.739 60.7581 160.739 61.1764C160.739 61.5947 160.922 61.6993 161.652 61.6993H162.591L162.513 63.3202L162.435 64.9673L161.522 65.1242L160.609 65.281L161.6 65.3333L162.565 65.3595V68.8889V72.4183H161.652C161.156 72.4183 160.739 72.5229 160.739 72.6797C160.739 72.8104 161.156 72.9412 161.652 72.9412C162.382 72.9412 162.565 73.0457 162.565 73.464C162.565 73.8823 162.382 73.9869 161.652 73.9869C161.156 73.9869 160.739 74.0915 160.739 74.2483C160.739 74.3791 161.156 74.5098 161.652 74.5098H162.565V78.0392V81.5686H161.652C161.156 81.5686 160.739 81.6732 160.739 81.83C160.739 81.9608 161.156 82.0915 161.652 82.0915C162.461 82.0915 162.565 82.1699 162.565 82.7451C162.565 83.3202 162.435 83.3987 161.6 83.4248L160.609 83.4771L161.522 83.634L162.435 83.7908V87.9738V92.1568L161.182 92.2353C160.061 92.3137 159.93 92.2614 159.669 91.6078C159.513 91.1372 159.435 88.6797 159.513 84.8889C159.617 78.9281 159.617 78.9281 159.069 79.0588C158.756 79.1634 158.209 79.2941 157.817 79.3725L157.087 79.5294V71.6601C157.087 66.5882 157.191 63.7908 157.348 63.7908C157.504 63.7908 157.609 63.6601 157.609 63.5294C157.609 63.3725 156.565 63.2679 154.974 63.2679C152.469 63.2679 152.365 63.2941 152.704 63.7647C152.965 64.1307 153.017 66.0653 152.965 72.732L152.887 81.2026L150.669 81.9869C148.765 82.6405 148.426 82.6928 148.217 82.3529C148.087 82.1438 147.956 80.4706 147.956 78.6144V75.2941H142.687H137.391V82.3006C137.391 87.7908 137.469 89.4117 137.73 89.7516C138.252 90.3791 141.774 92.5751 144.174 93.8039C152.13 97.8039 161.574 98.8235 170.261 96.6013C173.287 95.8431 176.835 94.4575 179.13 93.1242L180.956 92.0784L181.087 87.9477L181.217 83.7908H182.391H183.565L183.643 86.8497C183.695 88.8889 183.8 89.9346 184.009 89.9346C184.165 89.9346 185.678 88.549 187.4 86.8497C190.348 83.9215 190.478 83.7385 190.322 82.9281C190.165 82.1699 190.217 82.0915 190.817 82.0915C191.182 82.0915 191.574 81.9608 191.652 81.83C191.756 81.6732 191.469 81.5686 191 81.5686H190.191L190.269 80.0523L190.348 78.5621L191.991 78.4836L193.609 78.4052V70.5882V62.7451H191.913C190.4 62.7451 190.217 62.6928 190.217 62.2222C190.217 61.7516 190.4 61.6993 191.652 61.6993C192.904 61.6993 193.087 61.6209 193.087 61.2026C193.087 60.7581 192.878 60.6797 191.73 60.6013C190.348 60.5228 190.348 60.5228 190.191 59.5294C189.982 58.1438 189.565 57.4902 188.522 56.7843C187.739 56.2876 187.609 56.0523 187.609 55.2157V54.2483L182.991 54.2745L178.348 54.3268L178.217 55.3202C178.113 56.2091 177.982 56.3398 177.226 56.4967C175.843 56.7843 174.852 57.9085 174.669 59.3987L174.487 60.6797L172.765 60.6013L171.043 60.5228L170.913 56.9411C170.809 53.8562 170.704 53.281 170.235 52.6536C168.852 50.7712 166.895 50.2745 164.913 51.2941ZM186.826 55.6601C186.826 56 186.435 56.3398 185.704 56.7059C184.452 57.3072 183.956 58.013 183.722 59.5294C183.565 60.4967 183.539 60.5228 182.313 60.6013L181.087 60.6797V59.817C181.087 58.7712 180.513 57.647 179.678 56.9673C179.235 56.6274 179.104 56.3137 179.182 55.817L179.313 55.1634H183.069C186.591 55.1634 186.826 55.1895 186.826 55.6601ZM174.513 63.3202L174.435 64.9673L173.287 65.0457C171.122 65.2026 170.913 65.0457 170.913 63.2679V61.6993H172.739H174.591L174.513 63.3202ZM183.643 63.3202L183.565 64.9673H182.391H181.217L181.139 63.3202L181.061 61.6993H182.391H183.722L183.643 63.3202ZM193.035 64.1045C192.956 64.9411 192.93 64.9673 191.652 64.9673C190.609 64.9673 190.348 64.8627 190.269 64.4967C190.087 63.5294 190.4 63.2679 191.782 63.2679H193.113L193.035 64.1045ZM174.565 68.8889V72.4444L172.817 72.366L171.043 72.2876L170.965 69.1764C170.939 67.451 170.965 65.8823 171.017 65.6993C171.122 65.464 171.695 65.3595 172.869 65.3595H174.565V68.8889ZM183.565 68.8889V72.2876L182.339 72.366L181.087 72.4444V68.8889V65.3333L182.339 65.4117L183.565 65.4902V68.8889ZM193.087 68.915V72.4444L191.73 72.366L190.348 72.2876L190.269 69.1764C190.243 67.451 190.269 65.8823 190.322 65.6993C190.426 65.4902 190.922 65.3595 191.782 65.3595H193.087V68.915ZM174.565 73.464C174.565 73.9346 174.382 73.9869 172.739 73.9869C171.095 73.9869 170.913 73.9346 170.913 73.464C170.913 72.9934 171.095 72.9412 172.739 72.9412C174.382 72.9412 174.565 72.9934 174.565 73.464ZM183.695 73.464C183.695 73.9085 183.513 73.9869 182.391 73.9869C181.269 73.9869 181.087 73.9085 181.087 73.464C181.087 73.0196 181.269 72.9412 182.391 72.9412C183.513 72.9412 183.695 73.0196 183.695 73.464ZM193.087 73.464C193.087 73.9346 192.904 73.9869 191.652 73.9869C190.4 73.9869 190.217 73.9346 190.217 73.464C190.217 72.9934 190.4 72.9412 191.652 72.9412C192.904 72.9412 193.087 72.9934 193.087 73.464ZM174.565 78.0392V81.5686H172.739H170.913V78.2222C170.913 76.366 170.991 74.7712 171.095 74.6928C171.174 74.5882 172.009 74.5098 172.922 74.5098H174.565V78.0392ZM183.643 78.0915L183.722 81.5686H182.391H181.087V78.0131V74.4836L182.339 74.5621L183.565 74.6405L183.643 78.0915ZM193.087 76.2091V77.9085H191.652H190.217V76.3921C190.217 75.5555 190.295 74.7712 190.4 74.6928C190.478 74.5882 191.13 74.5098 191.835 74.5098H193.087V76.2091ZM174.565 82.7451C174.565 83.4248 174.539 83.4248 172.817 83.3464C171.2 83.268 171.043 83.2157 170.965 82.6666C170.887 82.1176 170.965 82.0915 172.713 82.0915C174.513 82.0915 174.565 82.1176 174.565 82.7451ZM183.643 82.6666C183.565 83.1895 183.409 83.268 182.391 83.268C181.374 83.268 181.217 83.1895 181.139 82.6666C181.061 82.1438 181.139 82.0915 182.391 82.0915C183.643 82.0915 183.722 82.1438 183.643 82.6666ZM174.435 87.9738V92.1568H172.739H171.043L170.965 88.2353C170.939 86.0915 170.965 84.183 171.043 83.9738C171.122 83.7385 171.617 83.6601 172.791 83.7124L174.435 83.7908V87.9738Z" fill="black"/>
<path d="M148.478 55.3464C146.548 56.0523 146.861 59.085 148.87 59.085C149.6 59.085 150.826 58.0392 150.826 57.4118C150.826 56.6797 150.252 55.7386 149.6 55.451C149.261 55.2941 148.948 55.1634 148.922 55.1895C148.896 55.1895 148.687 55.268 148.478 55.3464Z" fill="black"/>
<path d="M142.576 56.2149C141.406 56.6846 141.219 58.0677 142.257 58.8766C143.002 59.4768 143.693 59.4768 144.358 58.8244C145.662 57.5458 144.305 55.5364 142.576 56.2149Z" fill="black"/>
<path d="M153.278 56.6013C151.191 58.0392 152.365 61.6993 154.922 61.6993C156.148 61.6993 157.609 60.2876 157.609 59.1111C157.609 58.0915 156.983 56.8366 156.331 56.4706C155.6 56.0784 153.904 56.1569 153.278 56.6013Z" fill="black"/>
<path d="M136.635 57.1242C136.087 57.6993 136.113 58.3791 136.687 58.902C137.339 59.4771 137.861 59.451 138.435 58.8235C139.504 57.6209 137.757 56 136.635 57.1242Z" fill="black"/>
<path d="M136.608 60.7058C135.826 61.1241 135.435 61.7254 135.435 62.5359C135.435 64.1307 137.417 64.8888 138.513 63.7124C139.452 62.7189 139.243 61.4117 138.017 60.7843C137.156 60.3137 137.261 60.3398 136.608 60.7058Z" fill="black"/>
<path d="M130.4 61.9085C129.8 62.5621 129.852 63.4248 130.478 64.0523C131.104 64.6797 131.73 64.7059 132.513 64.1569C133.165 63.7124 133.322 62.3007 132.774 61.7516C132.304 61.2811 130.87 61.3856 130.4 61.9085Z" fill="black"/>
<path d="M141.2 62.4052C140.313 63.5032 140.209 64.2353 140.782 65.3594C141.956 67.6078 145.191 67.3987 145.817 65.0196C146.339 63.1111 145.087 61.4379 143.13 61.4379C142.139 61.4379 141.904 61.5686 141.2 62.4052Z" fill="black"/>
<path d="M125 62.4836C124.348 63.1372 124.348 63.3202 124.974 64.0784C125.391 64.6013 125.574 64.6535 126.174 64.4444C127.191 64.0784 127.478 63.1372 126.826 62.4836C126.174 61.83 125.652 61.83 125 62.4836Z" fill="black"/>
<path d="M137.261 71.6341V72.6798H142.609H147.956V71.6341V70.5883H142.609H137.261V71.6341Z" fill="black"/>
<path d="M28.044 156.396C28.044 158.499 27.778 160.411 27.246 162.134C26.7393 163.831 25.954 165.301 24.89 166.542C23.8513 167.783 22.5087 168.733 20.862 169.392C19.2407 170.051 17.328 170.38 15.124 170.38C12.92 170.38 10.9947 170.051 9.348 169.392C7.72667 168.708 6.384 167.758 5.32 166.542C4.28133 165.301 3.496 163.819 2.964 162.096C2.45733 160.373 2.204 158.461 2.204 156.358C2.204 153.546 2.66 151.101 3.572 149.024C4.50933 146.947 5.928 145.338 7.828 144.198C9.75333 143.033 12.198 142.45 15.162 142.45C18.1007 142.45 20.52 143.033 22.42 144.198C24.32 145.338 25.726 146.959 26.638 149.062C27.5753 151.139 28.044 153.584 28.044 156.396ZM8.246 156.396C8.246 158.296 8.48667 159.93 8.968 161.298C9.44933 162.666 10.1967 163.717 11.21 164.452C12.2233 165.187 13.528 165.554 15.124 165.554C16.7707 165.554 18.088 165.187 19.076 164.452C20.0893 163.717 20.824 162.666 21.28 161.298C21.7613 159.93 22.002 158.296 22.002 156.396C22.002 153.533 21.47 151.291 20.406 149.67C19.342 148.049 17.594 147.238 15.162 147.238C13.5407 147.238 12.2233 147.605 11.21 148.34C10.1967 149.075 9.44933 150.126 8.968 151.494C8.48667 152.862 8.246 154.496 8.246 156.396ZM42.3281 142.868C45.8241 142.868 48.3701 143.628 49.9661 145.148C51.5875 146.643 52.3981 148.707 52.3981 151.342C52.3981 152.533 52.2208 153.673 51.8661 154.762C51.5115 155.826 50.9161 156.789 50.0801 157.65C49.2695 158.486 48.1928 159.145 46.8501 159.626C45.5075 160.107 43.8481 160.348 41.8721 160.348H39.4021V170H33.6641V142.868H42.3281ZM42.0241 147.58H39.4021V155.636H41.3021C42.3915 155.636 43.3288 155.497 44.1141 155.218C44.8995 154.939 45.5075 154.496 45.9381 153.888C46.3688 153.28 46.5841 152.495 46.5841 151.532C46.5841 150.189 46.2168 149.201 45.4821 148.568C44.7475 147.909 43.5948 147.58 42.0241 147.58ZM74.6635 142.868V147.618H63.2635V170H57.5255V142.868H74.6635ZM101.056 170H95.3183V158.296H84.5643V170H78.8263V142.868H84.5643V153.508H95.3183V142.868H101.056V170ZM123.501 170H107.883V142.868H123.501V147.58H113.621V153.546H122.817V158.258H113.621V165.25H123.501V170ZM144.651 142.488V145.832C147.615 145.908 149.971 146.427 151.719 147.39C153.492 148.327 154.759 149.543 155.519 151.038C156.304 152.533 156.697 154.167 156.697 155.94C156.697 157.08 156.494 158.245 156.089 159.436C155.709 160.627 155.05 161.729 154.113 162.742C153.201 163.73 151.972 164.541 150.427 165.174C148.881 165.807 146.956 166.149 144.651 166.2V170.38H139.483V166.2C137.152 166.149 135.201 165.807 133.631 165.174C132.085 164.541 130.857 163.717 129.945 162.704C129.033 161.691 128.387 160.601 128.007 159.436C127.627 158.245 127.437 157.08 127.437 155.94C127.437 154.623 127.652 153.369 128.083 152.178C128.513 150.987 129.197 149.923 130.135 148.986C131.072 148.049 132.313 147.301 133.859 146.744C135.404 146.187 137.279 145.883 139.483 145.832V142.488H144.651ZM139.483 150.316C137.836 150.392 136.519 150.683 135.531 151.19C134.568 151.671 133.871 152.317 133.441 153.128C133.035 153.939 132.833 154.863 132.833 155.902C132.833 157.042 133.061 158.043 133.517 158.904C133.998 159.74 134.72 160.411 135.683 160.918C136.671 161.399 137.937 161.678 139.483 161.754V150.316ZM144.651 161.754C146.196 161.678 147.45 161.399 148.413 160.918C149.401 160.411 150.123 159.74 150.579 158.904C151.06 158.043 151.301 157.042 151.301 155.902C151.301 154.863 151.085 153.939 150.655 153.128C150.249 152.317 149.553 151.671 148.565 151.19C147.602 150.683 146.297 150.392 144.651 150.316V161.754ZM172.29 170H166.552V147.656H159.18V142.868H179.662V147.656H172.29V170ZM199.464 170H183.846V142.868H199.464V147.58H189.584V153.546H198.78V158.258H189.584V165.25H199.464V170ZM227.035 170H220.461L214.153 159.74L207.845 170H201.689L210.695 156.016L202.259 142.868H208.605L214.457 152.634L220.195 142.868H226.389L217.877 156.32L227.035 170ZM230.455 142.868H235.623V155.978C235.623 156.611 235.61 157.321 235.585 158.106C235.56 158.891 235.534 159.664 235.509 160.424C235.484 161.159 235.458 161.805 235.433 162.362C235.408 162.894 235.382 163.261 235.357 163.464H235.471L248.011 142.868H254.889V170H249.759V156.966C249.759 156.282 249.772 155.535 249.797 154.724C249.822 153.888 249.848 153.09 249.873 152.33C249.924 151.57 249.962 150.911 249.987 150.354C250.038 149.771 250.076 149.391 250.101 149.214H249.949L237.371 170H230.455V142.868ZM273.214 170L266.678 148.72H266.526C266.552 149.227 266.59 149.987 266.64 151C266.691 152.013 266.742 153.103 266.792 154.268C266.843 155.408 266.868 156.447 266.868 157.384V170H261.738V142.868H269.566L275.988 163.616H276.102L282.904 142.868H290.732V170H285.374V157.156C285.374 156.295 285.387 155.307 285.412 154.192C285.463 153.077 285.501 152.026 285.526 151.038C285.577 150.025 285.615 149.265 285.64 148.758H285.488L278.496 170H273.214Z" fill="black"/>
</svg>
