<svg width="30" height="30" viewBox="0 0 120 120" fill="none" xmlns="http://www.w3.org/2000/svg">
<path d="M46.1739 0.496731C43.8261 1.04575 40.487 2.06536 39.8609 2.37908C39.4696 2.58823 39.4696 2.66667 39.8609 3.45098C40.2 4.10457 40.3043 4.99346 40.3043 7.18954C40.3043 9.93464 40.2522 10.1438 39.4174 11.8431C38.2174 14.2222 35.9217 16.366 33.4174 17.3595C31.7739 18.0392 31.4087 18.0915 29.0348 17.9869C25.9304 17.8301 24.2087 17.1242 21.8609 14.9542L20.3478 13.5425L18.9652 14.7974C17.6609 16.0261 16.2522 17.4641 14.3739 19.4248L13.487 20.366L14.687 21.4379C16.1478 22.7451 17.6087 25.5425 18.0522 27.8954C18.6 30.9281 17.5043 34.4314 15.2348 36.8889C12.2609 40.0523 8.06087 41.2288 4.14783 40C3.23478 39.7386 2.47826 39.5294 2.47826 39.5556C2.24348 39.9477 0.93913 44.5229 0.626087 46.0131C0.391304 47.085 0.156522 48.2353 0.0782609 48.5229C-0.026087 49.0196 0.104348 49.098 1.14783 49.2549C4.12174 49.6993 7.51304 52.3922 8.97391 55.4248C9.73043 57.0196 9.78261 57.3333 9.78261 60C9.78261 62.5882 9.70435 63.0327 9.05217 64.4183C7.56522 67.6078 5.29565 69.5686 1.90435 70.5882C0.86087 70.902 0 71.2418 0 71.3464C0 72.0523 2.1913 80.0784 2.50435 80.4967C2.55652 80.549 3.13043 80.366 3.83478 80.1046C5.84348 79.3203 9.05217 79.451 11.3217 80.3922C15.2609 82.0131 18.2609 86.4314 18.2609 90.5882C18.2609 93.1765 16.9565 96.2092 14.9478 98.2745L13.5652 99.7124L14.2696 100.497C15.5478 101.961 20.1652 106.405 20.4 106.405C20.5043 106.405 21 105.961 21.4957 105.438C21.9913 104.889 23.0348 104.052 23.8174 103.582C29.3217 100.261 36.2348 102.248 39.2609 108.026C40.1478 109.699 40.2522 110.17 40.3826 112.261C40.4609 114.144 40.3826 114.954 39.9913 116.105L39.4957 117.569L41.087 118.118C43.3565 118.902 47.5826 120 48.3652 120C48.887 120 49.0696 119.843 49.2 119.294C50.087 115.19 52.4087 112.34 56.087 110.824C58.0957 109.987 61.8522 109.987 63.913 110.824C67.5391 112.314 69.913 115.242 70.8 119.268C70.9304 119.817 71.113 120 71.6087 120C72.3652 120 75.4174 119.216 78.3913 118.248L80.5043 117.569L80.0087 116.105C79.6174 114.98 79.5391 114.118 79.6174 112.366C79.7217 110.405 79.8522 109.856 80.687 108.157C83.5826 102.301 90.6 100.209 96.1826 103.582C96.9652 104.052 98.0087 104.889 98.4783 105.438C98.9217 105.961 99.4174 106.405 99.5739 106.405C99.8348 106.405 104.374 102.065 105.73 100.497L106.435 99.7124L105.052 98.2745C100.643 93.7255 100.748 87.1895 105.261 82.719C107.478 80.549 109.617 79.6601 112.696 79.634C114.261 79.6078 115.278 79.7386 116.165 80.1046C116.87 80.366 117.443 80.549 117.496 80.4967C117.783 80.0784 120 71.9477 120 71.2418C120 71.1895 119.139 70.902 118.122 70.5882C114.783 69.5948 112.617 67.7647 110.974 64.5752C110.27 63.2418 110.217 62.9281 110.217 60.1307C110.217 57.3072 110.27 57.0196 111.026 55.3987C112.461 52.366 115.852 49.7255 118.852 49.2549C119.478 49.1765 120 49.0196 120 48.915C120 48.3399 117.783 39.8693 117.548 39.5556C117.522 39.5294 116.739 39.7386 115.826 40.0261C112.278 41.1503 108.183 40.1307 105.313 37.4118C102.052 34.3268 101.035 30.0915 102.47 25.8824C103.096 24.0784 104.374 22.1699 105.548 21.2549C106.043 20.8889 106.409 20.4967 106.383 20.366C106.278 20.0784 102.704 16.366 101.035 14.7974L99.6522 13.5425L98.1391 14.9542C95.7913 17.1242 94.0696 17.8301 90.9652 17.9869C88.5913 18.0915 88.2261 18.0392 86.5826 17.3595C84.0522 16.366 81.7043 14.1699 80.5826 11.817C79.513 9.62091 79.2522 6.43137 79.9304 4.10457C80.1652 3.32026 80.3478 2.58823 80.3478 2.5098C80.3478 2.24836 72.3391 -1.39698e-06 71.2957 -1.39698e-06C71.1391 -1.39698e-06 70.8783 0.62745 70.6957 1.35948C70.3043 3.08497 68.9217 5.62091 67.7739 6.71895C63.4696 10.8497 56.6087 10.902 52.3565 6.82353C51.1043 5.64706 49.7217 3.1634 49.3043 1.35948C48.9391 -0.183008 49.0435 -0.156864 46.1739 0.496731ZM66.2609 20.915C70.2783 21.5686 73.1478 22.4575 76.6696 24.1046C84.0261 27.5294 90.5739 33.6471 94.6435 40.915C95.3739 42.1961 96.0522 43.5817 96.1304 44C96.2348 44.3922 96.4174 44.7582 96.5217 44.8366C96.8609 45.0458 98.2696 49.7516 98.9217 52.8105C99.7565 56.7843 99.7565 63.268 98.8957 67.3203C97.1478 75.7386 93.6261 82.3268 87.7826 88.2091C82.6174 93.3856 76.1217 96.9412 68.6087 98.719C65.2174 99.5294 58.5391 99.8431 54.9652 99.3725C39.8087 97.3333 27.1826 86.902 22.4348 72.4183C20.9217 67.7908 20.5043 65.1242 20.5043 60C20.5304 55.9216 20.6087 54.902 21.1826 52.2876C22.4087 46.8758 23.8435 43.268 26.4 39.1373C29.3217 34.3791 33.9652 29.6993 38.8435 26.5359C46.6957 21.4641 56.8174 19.3725 66.2609 20.915Z" fill="white"/>
<path d="M63.9129 51.2941C62.0346 52.2875 61.565 53.464 61.565 57.4379V60.6536H60.652C59.9215 60.6536 59.7389 60.7581 59.7389 61.1764C59.7389 61.5947 59.9215 61.6993 60.652 61.6993H61.5911L61.5129 63.3202L61.4346 64.9673L60.5215 65.1242L59.6085 65.281L60.5998 65.3333L61.565 65.3595V68.8889V72.4183H60.652C60.1563 72.4183 59.7389 72.5229 59.7389 72.6797C59.7389 72.8104 60.1563 72.9412 60.652 72.9412C61.3824 72.9412 61.565 73.0457 61.565 73.464C61.565 73.8823 61.3824 73.9869 60.652 73.9869C60.1563 73.9869 59.7389 74.0915 59.7389 74.2483C59.7389 74.3791 60.1563 74.5098 60.652 74.5098H61.565V78.0392V81.5686H60.652C60.1563 81.5686 59.7389 81.6732 59.7389 81.83C59.7389 81.9608 60.1563 82.0915 60.652 82.0915C61.4607 82.0915 61.565 82.1699 61.565 82.7451C61.565 83.3202 61.4346 83.3987 60.5998 83.4248L59.6085 83.4771L60.5215 83.634L61.4346 83.7908V87.9738V92.1568L60.1824 92.2353C59.0607 92.3137 58.9302 92.2614 58.6694 91.6078C58.5129 91.1372 58.4346 88.6797 58.5129 84.8889C58.6172 78.9281 58.6172 78.9281 58.0694 79.0588C57.7563 79.1634 57.2085 79.2941 56.8172 79.3725L56.0868 79.5294V71.6601C56.0868 66.5882 56.1911 63.7908 56.3476 63.7908C56.5042 63.7908 56.6085 63.6601 56.6085 63.5294C56.6085 63.3725 55.565 63.2679 53.9737 63.2679C51.4694 63.2679 51.365 63.2941 51.7042 63.7647C51.965 64.1307 52.0172 66.0653 51.965 72.732L51.8868 81.2026L49.6694 81.9869C47.765 82.6405 47.4259 82.6928 47.2172 82.3529C47.0868 82.1438 46.9563 80.4706 46.9563 78.6144V75.2941H41.6868H36.3911V82.3006C36.3911 87.7908 36.4694 89.4117 36.7302 89.7516C37.252 90.3791 40.7737 92.5751 43.1737 93.8039C51.1302 97.8039 60.5737 98.8235 69.2607 96.6013C72.2868 95.8431 75.8346 94.4575 78.1302 93.1242L79.9563 92.0784L80.0868 87.9477L80.2172 83.7908H81.3911H82.565L82.6433 86.8497C82.6955 88.8889 82.7998 89.9346 83.0085 89.9346C83.165 89.9346 84.6781 88.549 86.3998 86.8497C89.3476 83.9215 89.4781 83.7385 89.3215 82.9281C89.165 82.1699 89.2172 82.0915 89.8172 82.0915C90.1824 82.0915 90.5737 81.9608 90.652 81.83C90.7563 81.6732 90.4694 81.5686 89.9998 81.5686H89.1911L89.2694 80.0523L89.3476 78.5621L90.9911 78.4836L92.6085 78.4052V70.5882V62.7451H90.9128C89.3998 62.7451 89.2172 62.6928 89.2172 62.2222C89.2172 61.7516 89.3998 61.6993 90.652 61.6993C91.9042 61.6993 92.0868 61.6209 92.0868 61.2026C92.0868 60.7581 91.8781 60.6797 90.7302 60.6013C89.3476 60.5228 89.3476 60.5228 89.1911 59.5294C88.9824 58.1438 88.565 57.4902 87.5215 56.7843C86.7389 56.2876 86.6085 56.0523 86.6085 55.2157V54.2483L81.9911 54.2745L77.3476 54.3268L77.2172 55.3202C77.1128 56.2091 76.9824 56.3398 76.2259 56.4967C74.8433 56.7843 73.852 57.9085 73.6694 59.3987L73.4868 60.6797L71.765 60.6013L70.0433 60.5228L69.9128 56.9411C69.8085 53.8562 69.7042 53.281 69.2346 52.6536C67.852 50.7712 65.8955 50.2745 63.9129 51.2941ZM85.8259 55.6601C85.8259 56 85.4346 56.3398 84.7042 56.7059C83.452 57.3072 82.9563 58.013 82.7215 59.5294C82.565 60.4967 82.5389 60.5228 81.3128 60.6013L80.0868 60.6797V59.817C80.0868 58.7712 79.5128 57.647 78.6781 56.9673C78.2346 56.6274 78.1042 56.3137 78.1824 55.817L78.3128 55.1634H82.0694C85.5911 55.1634 85.8259 55.1895 85.8259 55.6601ZM73.5128 63.3202L73.4346 64.9673L72.2868 65.0457C70.1215 65.2026 69.9128 65.0457 69.9128 63.2679V61.6993H71.7389H73.5911L73.5128 63.3202ZM82.6433 63.3202L82.565 64.9673H81.3911H80.2172L80.1389 63.3202L80.0607 61.6993H81.3911H82.7215L82.6433 63.3202ZM92.0346 64.1045C91.9563 64.9411 91.9302 64.9673 90.652 64.9673C89.6085 64.9673 89.3476 64.8627 89.2694 64.4967C89.0868 63.5294 89.3998 63.2679 90.7824 63.2679H92.1128L92.0346 64.1045ZM73.565 68.8889V72.4444L71.8172 72.366L70.0433 72.2876L69.965 69.1764C69.9389 67.451 69.965 65.8823 70.0172 65.6993C70.1215 65.464 70.6955 65.3595 71.8694 65.3595H73.565V68.8889ZM82.565 68.8889V72.2876L81.3389 72.366L80.0868 72.4444V68.8889V65.3333L81.3389 65.4117L82.565 65.4902V68.8889ZM92.0868 68.915V72.4444L90.7302 72.366L89.3476 72.2876L89.2694 69.1764C89.2433 67.451 89.2694 65.8823 89.3215 65.6993C89.4259 65.4902 89.9215 65.3595 90.7824 65.3595H92.0868V68.915ZM73.565 73.464C73.565 73.9346 73.3824 73.9869 71.7389 73.9869C70.0955 73.9869 69.9128 73.9346 69.9128 73.464C69.9128 72.9934 70.0955 72.9412 71.7389 72.9412C73.3824 72.9412 73.565 72.9934 73.565 73.464ZM82.6955 73.464C82.6955 73.9085 82.5128 73.9869 81.3911 73.9869C80.2694 73.9869 80.0868 73.9085 80.0868 73.464C80.0868 73.0196 80.2694 72.9412 81.3911 72.9412C82.5128 72.9412 82.6955 73.0196 82.6955 73.464ZM92.0868 73.464C92.0868 73.9346 91.9042 73.9869 90.652 73.9869C89.3998 73.9869 89.2172 73.9346 89.2172 73.464C89.2172 72.9934 89.3998 72.9412 90.652 72.9412C91.9042 72.9412 92.0868 72.9934 92.0868 73.464ZM73.565 78.0392V81.5686H71.7389H69.9128V78.2222C69.9128 76.366 69.9911 74.7712 70.0955 74.6928C70.1737 74.5882 71.0085 74.5098 71.9215 74.5098H73.565V78.0392ZM82.6433 78.0915L82.7215 81.5686H81.3911H80.0868V78.0131V74.4836L81.3389 74.5621L82.565 74.6405L82.6433 78.0915ZM92.0868 76.2091V77.9085H90.652H89.2172V76.3921C89.2172 75.5555 89.2955 74.7712 89.3998 74.6928C89.4781 74.5882 90.1302 74.5098 90.8346 74.5098H92.0868V76.2091ZM73.565 82.7451C73.565 83.4248 73.5389 83.4248 71.8172 83.3464C70.1998 83.268 70.0433 83.2157 69.965 82.6666C69.8868 82.1176 69.965 82.0915 71.7128 82.0915C73.5128 82.0915 73.565 82.1176 73.565 82.7451ZM82.6433 82.6666C82.565 83.1895 82.4085 83.268 81.3911 83.268C80.3737 83.268 80.2172 83.1895 80.1389 82.6666C80.0607 82.1438 80.1389 82.0915 81.3911 82.0915C82.6433 82.0915 82.7215 82.1438 82.6433 82.6666ZM73.4346 87.9738V92.1568H71.7389H70.0433L69.965 88.2353C69.9389 86.0915 69.965 84.183 70.0433 83.9738C70.1215 83.7385 70.6172 83.6601 71.7911 83.7124L73.4346 83.7908V87.9738Z" fill="white"/>
<path d="M47.4783 55.3464C45.5479 56.0523 45.8609 59.085 47.8696 59.085C48.6001 59.085 49.8262 58.0392 49.8262 57.4118C49.8262 56.6797 49.2523 55.7386 48.6001 55.451C48.2609 55.2941 47.9479 55.1634 47.9218 55.1895C47.8957 55.1895 47.687 55.268 47.4783 55.3464Z" fill="white"/>
<path d="M41.576 56.2149C40.4056 56.6846 40.2194 58.0677 41.2568 58.8766C42.0016 59.4768 42.6932 59.4768 43.3582 58.8244C44.6616 57.5458 43.305 55.5364 41.576 56.2149Z" fill="white"/>
<path d="M52.2784 56.6012C50.1914 58.0391 51.3654 61.6993 53.9219 61.6993C55.148 61.6993 56.6088 60.2875 56.6088 59.111C56.6088 58.0914 55.9827 56.8365 55.3306 56.4705C54.6001 56.0784 52.9045 56.1568 52.2784 56.6012Z" fill="white"/>
<path d="M35.6348 57.1242C35.087 57.6993 35.1131 58.3791 35.687 58.902C36.3392 59.4771 36.8609 59.451 37.4348 58.8235C38.5044 57.6209 36.7566 56 35.6348 57.1242Z" fill="white"/>
<path d="M35.6085 60.7059C34.8259 61.1242 34.4346 61.7255 34.4346 62.536C34.4346 64.1307 36.4172 64.8889 37.5128 63.7124C38.452 62.719 38.2433 61.4118 37.0172 60.7843C36.1563 60.3137 36.2607 60.3399 35.6085 60.7059Z" fill="white"/>
<path d="M29.4 61.9086C28.8 62.5622 28.8522 63.4249 29.4782 64.0524C30.1043 64.6798 30.7304 64.7059 31.513 64.1569C32.1652 63.7125 32.3217 62.3007 31.7739 61.7517C31.3043 61.2811 29.8695 61.3857 29.4 61.9086Z" fill="white"/>
<path d="M40.1998 62.4053C39.3129 63.5033 39.2085 64.2353 39.7825 65.3595C40.9564 67.6079 44.1911 67.3987 44.8172 65.0196C45.339 63.1111 44.0868 61.4379 42.1303 61.4379C41.139 61.4379 40.9042 61.5687 40.1998 62.4053Z" fill="white"/>
<path d="M23.9998 62.4836C23.3476 63.1372 23.3476 63.3202 23.9737 64.0784C24.3911 64.6013 24.5737 64.6535 25.1737 64.4444C26.1911 64.0784 26.478 63.1372 25.8259 62.4836C25.1737 61.83 24.6519 61.83 23.9998 62.4836Z" fill="white"/>
<path d="M36.2607 71.634V72.6797H41.6086H46.9564V71.634V70.5882H41.6086H36.2607V71.634Z" fill="white"/>
</svg>
